<svg width="49" height="49" viewBox="0 0 49 49" fill="none" xmlns="http://www.w3.org/2000/svg">
<path d="M41.5375 16.1964C41.3362 15.4782 40.9439 14.8279 40.4026 14.3148C39.8459 13.7858 39.1636 13.4074 38.4201 13.2154C35.6376 12.482 24.4897 12.482 24.4897 12.482C19.8422 12.4291 15.1959 12.6616 10.577 13.1783C9.83351 13.3846 9.15251 13.7714 8.59457 14.3044C8.04637 14.8318 7.64928 15.4823 7.44185 16.195C6.94357 18.8793 6.70146 21.605 6.71881 24.3351C6.70103 27.0628 6.94254 29.7876 7.44185 32.4753C7.64484 33.185 8.04044 33.8325 8.59013 34.3555C9.13982 34.8785 9.82434 35.2563 10.577 35.4564C13.3966 36.1883 24.4897 36.1883 24.4897 36.1883C29.143 36.2412 33.7952 36.0087 38.4201 35.4919C39.1636 35.2999 39.8459 34.9215 40.4026 34.3925C40.9438 33.8795 41.3355 33.2291 41.536 32.5109C42.0473 29.8275 42.2959 27.1008 42.2783 24.3692C42.3168 21.6261 42.0685 18.8865 41.5375 16.195V16.1964ZM20.9456 29.4083V19.2635L30.2207 24.3366L20.9456 29.4083Z" fill="white"/>
</svg>
